<svg xmlns="http://www.w3.org/2000/svg" xmlns:xlink="http://www.w3.org/1999/xlink" width="1301" zoomAndPan="magnify" viewBox="0 0 975.75 75.749997" height="101" preserveAspectRatio="xMidYMid meet" version="1.0"><defs><clipPath id="422f5a90a4"><path d="M 1.964844 0.332031 L 431.90625 0.332031 L 431.90625 75.105469 L 1.964844 75.105469 Z M 1.964844 0.332031 " clip-rule="nonzero"/></clipPath><clipPath id="f56a8e34c0"><path d="M 2 39 L 431.90625 39 L 431.90625 40 L 2 40 Z M 2 39 " clip-rule="nonzero"/></clipPath><clipPath id="d0719b9587"><path d="M 392 0.332031 L 393 0.332031 L 393 75.105469 L 392 75.105469 Z M 392 0.332031 " clip-rule="nonzero"/></clipPath><clipPath id="9932500948"><path d="M 353 0.332031 L 354 0.332031 L 354 75.105469 L 353 75.105469 Z M 353 0.332031 " clip-rule="nonzero"/></clipPath><clipPath id="45e47351b5"><path d="M 314 0.332031 L 315 0.332031 L 315 75.105469 L 314 75.105469 Z M 314 0.332031 " clip-rule="nonzero"/></clipPath><clipPath id="ec17ce3d6e"><path d="M 275 0.332031 L 276 0.332031 L 276 75.105469 L 275 75.105469 Z M 275 0.332031 " clip-rule="nonzero"/></clipPath><clipPath id="35cf7eb0da"><path d="M 236 0.332031 L 237 0.332031 L 237 75.105469 L 236 75.105469 Z M 236 0.332031 " clip-rule="nonzero"/></clipPath><clipPath id="3633abf287"><path d="M 197 0.332031 L 198 0.332031 L 198 75.105469 L 197 75.105469 Z M 197 0.332031 " clip-rule="nonzero"/></clipPath><clipPath id="a22e41544f"><path d="M 158 0.332031 L 159 0.332031 L 159 75.105469 L 158 75.105469 Z M 158 0.332031 " clip-rule="nonzero"/></clipPath><clipPath id="57cb2b1a5f"><path d="M 119 0.332031 L 120 0.332031 L 120 75.105469 L 119 75.105469 Z M 119 0.332031 " clip-rule="nonzero"/></clipPath><clipPath id="80e5484dec"><path d="M 80 0.332031 L 81 0.332031 L 81 75.105469 L 80 75.105469 Z M 80 0.332031 " clip-rule="nonzero"/></clipPath><clipPath id="28be7bb1a7"><path d="M 41 0.332031 L 42 0.332031 L 42 75.105469 L 41 75.105469 Z M 41 0.332031 " clip-rule="nonzero"/></clipPath><clipPath id="f272002def"><path d="M 430.757812 0.332031 L 860.699219 0.332031 L 860.699219 72.859375 L 430.757812 72.859375 Z M 430.757812 0.332031 " clip-rule="nonzero"/></clipPath><clipPath id="39cf7b2348"><path d="M 431 39 L 860.699219 39 L 860.699219 40 L 431 40 Z M 431 39 " clip-rule="nonzero"/></clipPath><clipPath id="996df9f994"><path d="M 821 0.332031 L 822 0.332031 L 822 72.859375 L 821 72.859375 Z M 821 0.332031 " clip-rule="nonzero"/></clipPath><clipPath id="dd82982329"><path d="M 782 0.332031 L 783 0.332031 L 783 72.859375 L 782 72.859375 Z M 782 0.332031 " clip-rule="nonzero"/></clipPath><clipPath id="fa2d11c554"><path d="M 743 0.332031 L 744 0.332031 L 744 72.859375 L 743 72.859375 Z M 743 0.332031 " clip-rule="nonzero"/></clipPath><clipPath id="c9c51785de"><path d="M 703 0.332031 L 705 0.332031 L 705 72.859375 L 703 72.859375 Z M 703 0.332031 " clip-rule="nonzero"/></clipPath><clipPath id="89ecebbbd7"><path d="M 664 0.332031 L 666 0.332031 L 666 72.859375 L 664 72.859375 Z M 664 0.332031 " clip-rule="nonzero"/></clipPath><clipPath id="71371eca16"><path d="M 625 0.332031 L 627 0.332031 L 627 72.859375 L 625 72.859375 Z M 625 0.332031 " clip-rule="nonzero"/></clipPath><clipPath id="4b82e34f3a"><path d="M 586 0.332031 L 588 0.332031 L 588 72.859375 L 586 72.859375 Z M 586 0.332031 " clip-rule="nonzero"/></clipPath><clipPath id="6a137d7c02"><path d="M 547 0.332031 L 549 0.332031 L 549 72.859375 L 547 72.859375 Z M 547 0.332031 " clip-rule="nonzero"/></clipPath><clipPath id="e7c3e35ba5"><path d="M 508 0.332031 L 510 0.332031 L 510 72.859375 L 508 72.859375 Z M 508 0.332031 " clip-rule="nonzero"/></clipPath><clipPath id="ce71dab247"><path d="M 469 0.332031 L 471 0.332031 L 471 72.859375 L 469 72.859375 Z M 469 0.332031 " clip-rule="nonzero"/></clipPath><clipPath id="dfb1f7255a"><path d="M 861.03125 0.332031 L 973.9375 0.332031 L 973.9375 72.859375 L 861.03125 72.859375 Z M 861.03125 0.332031 " clip-rule="nonzero"/></clipPath><clipPath id="e13837dabd"><path d="M 861.03125 39 L 973.9375 39 L 973.9375 40 L 861.03125 40 Z M 861.03125 39 " clip-rule="nonzero"/></clipPath><clipPath id="6ba23c43e0"><path d="M 939 0.332031 L 940 0.332031 L 940 72.859375 L 939 72.859375 Z M 939 0.332031 " clip-rule="nonzero"/></clipPath><clipPath id="4b6dbfffbb"><path d="M 900 0.332031 L 901 0.332031 L 901 72.859375 L 900 72.859375 Z M 900 0.332031 " clip-rule="nonzero"/></clipPath></defs><g clip-path="url(#422f5a90a4)"><path fill="#000000" d="M 431.925781 430.292969 L 1.984375 430.292969 L 1.984375 0.351562 L 431.925781 0.351562 Z M 2.578125 429.695312 L 431.328125 429.695312 L 431.328125 0.949219 L 2.578125 0.949219 Z M 2.578125 429.695312 " fill-opacity="1" fill-rule="nonzero"/></g><g clip-path="url(#f56a8e34c0)"><path fill="#000000" d="M 2.28125 39.382812 L 431.625 39.382812 L 431.625 39.976562 L 2.28125 39.976562 Z M 2.28125 39.382812 " fill-opacity="1" fill-rule="nonzero"/></g><g clip-path="url(#d0719b9587)"><path fill="#000000" d="M 392.296875 0.648438 L 392.894531 0.648438 L 392.894531 429.996094 L 392.296875 429.996094 Z M 392.296875 0.648438 " fill-opacity="1" fill-rule="nonzero"/></g><g clip-path="url(#9932500948)"><path fill="#000000" d="M 353.265625 0.648438 L 353.863281 0.648438 L 353.863281 429.996094 L 353.265625 429.996094 Z M 353.265625 0.648438 " fill-opacity="1" fill-rule="nonzero"/></g><g clip-path="url(#45e47351b5)"><path fill="#000000" d="M 314.230469 0.648438 L 314.828125 0.648438 L 314.828125 429.996094 L 314.230469 429.996094 Z M 314.230469 0.648438 " fill-opacity="1" fill-rule="nonzero"/></g><g clip-path="url(#ec17ce3d6e)"><path fill="#000000" d="M 275.203125 0.648438 L 275.796875 0.648438 L 275.796875 429.996094 L 275.203125 429.996094 Z M 275.203125 0.648438 " fill-opacity="1" fill-rule="nonzero"/></g><g clip-path="url(#35cf7eb0da)"><path fill="#000000" d="M 236.171875 0.648438 L 236.765625 0.648438 L 236.765625 429.996094 L 236.171875 429.996094 Z M 236.171875 0.648438 " fill-opacity="1" fill-rule="nonzero"/></g><g clip-path="url(#3633abf287)"><path fill="#000000" d="M 197.140625 0.648438 L 197.738281 0.648438 L 197.738281 429.996094 L 197.140625 429.996094 Z M 197.140625 0.648438 " fill-opacity="1" fill-rule="nonzero"/></g><g clip-path="url(#a22e41544f)"><path fill="#000000" d="M 158.109375 0.648438 L 158.707031 0.648438 L 158.707031 429.996094 L 158.109375 429.996094 Z M 158.109375 0.648438 " fill-opacity="1" fill-rule="nonzero"/></g><g clip-path="url(#57cb2b1a5f)"><path fill="#000000" d="M 119.078125 0.648438 L 119.675781 0.648438 L 119.675781 429.996094 L 119.078125 429.996094 Z M 119.078125 0.648438 " fill-opacity="1" fill-rule="nonzero"/></g><g clip-path="url(#80e5484dec)"><path fill="#000000" d="M 80.042969 0.648438 L 80.640625 0.648438 L 80.640625 429.996094 L 80.042969 429.996094 Z M 80.042969 0.648438 " fill-opacity="1" fill-rule="nonzero"/></g><g clip-path="url(#28be7bb1a7)"><path fill="#000000" d="M 41.015625 0.648438 L 41.609375 0.648438 L 41.609375 429.996094 L 41.015625 429.996094 Z M 41.015625 0.648438 " fill-opacity="1" fill-rule="nonzero"/></g><g clip-path="url(#f272002def)"><path fill="#000000" d="M 860.71875 430.292969 L 430.777344 430.292969 L 430.777344 0.351562 L 860.71875 0.351562 Z M 431.371094 429.695312 L 860.121094 429.695312 L 860.121094 0.949219 L 431.371094 0.949219 Z M 431.371094 429.695312 " fill-opacity="1" fill-rule="nonzero"/></g><g clip-path="url(#39cf7b2348)"><path fill="#000000" d="M 431.074219 39.382812 L 860.421875 39.382812 L 860.421875 39.976562 L 431.074219 39.976562 Z M 431.074219 39.382812 " fill-opacity="1" fill-rule="nonzero"/></g><g clip-path="url(#996df9f994)"><path fill="#000000" d="M 821.089844 0.648438 L 821.6875 0.648438 L 821.6875 429.996094 L 821.089844 429.996094 Z M 821.089844 0.648438 " fill-opacity="1" fill-rule="nonzero"/></g><g clip-path="url(#dd82982329)"><path fill="#000000" d="M 782.0625 0.648438 L 782.65625 0.648438 L 782.65625 429.996094 L 782.0625 429.996094 Z M 782.0625 0.648438 " fill-opacity="1" fill-rule="nonzero"/></g><g clip-path="url(#fa2d11c554)"><path fill="#000000" d="M 743.027344 0.648438 L 743.621094 0.648438 L 743.621094 429.996094 L 743.027344 429.996094 Z M 743.027344 0.648438 " fill-opacity="1" fill-rule="nonzero"/></g><g clip-path="url(#c9c51785de)"><path fill="#000000" d="M 703.996094 0.648438 L 704.589844 0.648438 L 704.589844 429.996094 L 703.996094 429.996094 Z M 703.996094 0.648438 " fill-opacity="1" fill-rule="nonzero"/></g><g clip-path="url(#89ecebbbd7)"><path fill="#000000" d="M 664.964844 0.648438 L 665.5625 0.648438 L 665.5625 429.996094 L 664.964844 429.996094 Z M 664.964844 0.648438 " fill-opacity="1" fill-rule="nonzero"/></g><g clip-path="url(#71371eca16)"><path fill="#000000" d="M 625.933594 0.648438 L 626.53125 0.648438 L 626.53125 429.996094 L 625.933594 429.996094 Z M 625.933594 0.648438 " fill-opacity="1" fill-rule="nonzero"/></g><g clip-path="url(#4b82e34f3a)"><path fill="#000000" d="M 586.902344 0.648438 L 587.5 0.648438 L 587.5 429.996094 L 586.902344 429.996094 Z M 586.902344 0.648438 " fill-opacity="1" fill-rule="nonzero"/></g><g clip-path="url(#6a137d7c02)"><path fill="#000000" d="M 547.871094 0.648438 L 548.46875 0.648438 L 548.46875 429.996094 L 547.871094 429.996094 Z M 547.871094 0.648438 " fill-opacity="1" fill-rule="nonzero"/></g><g clip-path="url(#e7c3e35ba5)"><path fill="#000000" d="M 508.839844 0.648438 L 509.433594 0.648438 L 509.433594 429.996094 L 508.839844 429.996094 Z M 508.839844 0.648438 " fill-opacity="1" fill-rule="nonzero"/></g><g clip-path="url(#ce71dab247)"><path fill="#000000" d="M 469.808594 0.648438 L 470.402344 0.648438 L 470.402344 429.996094 L 469.808594 429.996094 Z M 469.808594 0.648438 " fill-opacity="1" fill-rule="nonzero"/></g><g clip-path="url(#dfb1f7255a)"><path fill="#000000" d="M 1290.992188 430.292969 L 861.050781 430.292969 L 861.050781 0.351562 L 1290.992188 0.351562 Z M 861.648438 429.695312 L 1290.398438 429.695312 L 1290.398438 0.949219 L 861.648438 0.949219 Z M 861.648438 429.695312 " fill-opacity="1" fill-rule="nonzero"/></g><g clip-path="url(#e13837dabd)"><path fill="#000000" d="M 861.351562 39.382812 L 1290.695312 39.382812 L 1290.695312 39.976562 L 861.351562 39.976562 Z M 861.351562 39.382812 " fill-opacity="1" fill-rule="nonzero"/></g><g clip-path="url(#6ba23c43e0)"><path fill="#000000" d="M 939.113281 0.648438 L 939.710938 0.648438 L 939.710938 429.996094 L 939.113281 429.996094 Z M 939.113281 0.648438 " fill-opacity="1" fill-rule="nonzero"/></g><g clip-path="url(#4b6dbfffbb)"><path fill="#000000" d="M 900.082031 0.648438 L 900.679688 0.648438 L 900.679688 429.996094 L 900.082031 429.996094 Z M 900.082031 0.648438 " fill-opacity="1" fill-rule="nonzero"/></g></svg>